<svg width="103" height="92" viewBox="0 0 103 92" fill="none" xmlns="http://www.w3.org/2000/svg">
<rect width="103" height="92" fill="white"/>
<path fill-rule="evenodd" clip-rule="evenodd" d="M61.6961 27.4519C61.6302 27.7155 61.4984 27.8914 61.3007 27.9791C59.4556 29.0117 57.764 30.7916 56.2266 33.3174L53.2283 38.6551C52.0421 40.8956 50.966 42.5977 49.9993 43.7621C46.9239 47.716 43.9473 50.3519 41.0702 51.6698C37.8195 53.1637 34.0746 53.3172 29.8348 52.1311L27.1989 51.3074C26.7593 51.1538 26.5729 50.8349 26.6388 50.3519C27.2977 46.8593 28.6045 43.7074 30.5596 40.8956L30.0984 34.9649C30.0766 34.7237 30.1531 34.5253 30.329 34.3718C30.4825 34.1958 30.6697 34.097 30.8891 34.0752C31.1086 34.0535 31.3063 34.1194 31.4822 34.2736C31.6357 34.4047 31.724 34.6031 31.7458 34.866L32.0753 38.8528L32.5036 38.3922V38.3579C34.1075 36.6011 35.952 34.9971 38.039 33.5474L39.5546 28.1438C39.6205 27.9244 39.7635 27.7597 39.9829 27.6496C40.1806 27.5402 40.3895 27.5066 40.609 27.5514C40.8284 27.6173 40.9931 27.7491 41.1032 27.9468C41.2132 28.1445 41.2462 28.3646 41.202 28.6058L40.1806 32.2631C40.7296 31.9336 41.4327 31.5494 42.2893 31.1099H42.3223C44.1233 30.188 46.0237 29.386 48.0224 28.7053C48.2418 28.617 48.4507 28.6288 48.6484 28.7382C48.8461 28.8259 48.9891 28.9801 49.0768 29.1995C49.1644 29.4189 49.1539 29.6272 49.0438 29.8255C48.9562 30.045 48.802 30.1985 48.5825 30.2862C47.2422 30.7474 46.0567 31.2199 45.0241 31.7029L47.3634 32.4278C47.5829 32.4944 47.7476 32.6262 47.8577 32.8239C47.9677 33.0215 47.9895 33.2416 47.9236 33.4828C47.8577 33.7023 47.7147 33.867 47.4952 33.9771C47.2975 34.0871 47.0893 34.0976 46.8692 34.01L42.7506 32.758C41.6304 33.351 40.4554 34.01 39.2251 34.7349C37.5777 35.8999 36.1062 37.1184 34.81 38.3928L39.3569 39.1177C39.5764 39.1612 39.7635 39.2712 39.917 39.4472C40.0488 39.6673 40.093 39.8867 40.0488 40.1062C40.0271 40.3263 39.9058 40.5015 39.6864 40.6333C39.5105 40.7651 39.3022 40.8093 39.0604 40.7651L33.4591 39.8426L32.1082 41.6218L32.0753 41.6883C30.3178 44.1476 29.0987 46.9048 28.418 49.9584L30.296 50.4856C34.0739 51.5841 37.4347 51.4741 40.3783 50.1561C42.9707 48.9482 45.7377 46.4659 48.6814 42.7098C49.5822 41.5895 50.6036 39.9638 51.7456 37.8334L54.7769 32.4298C56.2708 30.014 57.8852 28.2236 59.6203 27.0598C56.5673 23.4137 52.6023 21.3268 47.7259 20.7996C42.2122 20.2065 37.1935 21.6997 32.6683 25.2806C28.0779 28.839 25.0355 33.4631 23.5416 39.152C22.0477 44.7532 22.5202 50.2009 24.9584 55.4945C25.0684 55.6928 25.079 55.9123 24.9913 56.1534C24.9254 56.3735 24.7831 56.5271 24.563 56.6147C24.4753 56.6813 24.3653 56.7136 24.2335 56.7136C23.8605 56.7136 23.5963 56.5488 23.4427 56.2193C20.8293 50.6398 20.3126 44.8079 21.8942 38.7236C23.5416 32.6828 26.7818 27.7623 31.614 23.9627C36.5998 20.0747 42.0363 18.4714 47.9236 19.1522C53.5907 19.7446 58.1264 22.2823 61.5313 26.7633C61.6855 26.9359 61.7402 27.1672 61.6961 27.4519ZM76.7542 34.8983C76.9519 34.7672 77.1608 34.7553 77.3803 34.8653C77.5997 34.9319 77.7539 35.0742 77.8415 35.2937C80.4992 40.8949 81.0152 46.7156 79.3901 52.7564C79.2366 53.3489 79.0718 53.8984 78.8959 54.4039C77.2043 59.6757 74.1296 64.0572 69.6703 67.5504C67.3197 69.3737 64.8703 70.6917 62.3228 71.5042C60.2358 72.1632 58.1165 72.4927 55.9637 72.4927C55.1946 72.4927 54.3386 72.4373 53.3937 72.3279C47.7265 71.7124 43.1796 69.1761 39.753 64.7161C39.5994 64.5408 39.5447 64.3102 39.5882 64.0242C39.6541 63.7389 39.8077 63.5524 40.0495 63.4641C41.8946 62.4091 43.575 60.6417 45.0906 58.1594C45.4425 57.6098 46.4415 55.8642 48.089 52.9205C49.3193 50.6141 50.3954 48.8678 51.3179 47.6817C54.3492 43.7938 57.3258 41.1796 60.247 39.8399C63.4984 38.3025 67.2433 38.1266 71.4825 39.3127L74.1513 40.1694C74.3272 40.236 74.4696 40.3559 74.5796 40.5325C74.6897 40.7085 74.7226 40.8949 74.6785 41.0926C74.3714 42.6742 73.8877 44.344 73.2287 46.1008C72.5256 47.77 71.7131 49.2645 70.7905 50.5825L71.1859 56.5132C71.2077 56.7327 71.1424 56.9304 70.9882 57.1057C70.8564 57.2592 70.67 57.3475 70.4281 57.3692C70.1863 57.391 69.9774 57.3251 69.8021 57.1716C69.6485 57.0398 69.5602 56.8533 69.5385 56.6108L69.242 52.591L68.8466 53.0853C67.2426 54.8645 65.3758 56.4783 63.2453 57.9287L61.7297 63.3323C61.6638 63.5524 61.532 63.7171 61.3343 63.8265C61.1366 63.9583 60.9284 63.9913 60.7083 63.9254C60.4664 63.8588 60.2911 63.727 60.1811 63.5293C60.071 63.3316 60.0388 63.1234 60.0822 62.9033L61.1366 59.246L58.9949 60.3992C57.1498 61.3218 55.2718 62.1237 53.3607 62.8044C53.1413 62.8927 52.9324 62.8809 52.7347 62.7715C52.5153 62.6832 52.3617 62.5185 52.2734 62.2773C52.1858 62.0572 52.197 61.8489 52.3064 61.6512C52.394 61.4536 52.5588 61.3106 52.8006 61.2229C54.162 60.7175 55.3377 60.2457 56.3261 59.8068L53.9209 59.016C53.7014 58.9495 53.5479 58.8183 53.4596 58.62C53.3495 58.4223 53.3278 58.2141 53.3937 57.9946C53.4596 57.7745 53.5914 57.6216 53.7891 57.5333C53.9868 57.4015 54.2062 57.3686 54.448 57.4345L58.5666 58.7195C59.5768 58.2141 60.7412 57.5445 62.0592 56.7096C63.6848 55.6329 65.1675 54.4362 66.5072 53.1182L61.9603 52.3604C61.7409 52.3387 61.5649 52.2293 61.4331 52.0309C61.3013 51.8556 61.246 51.6579 61.2684 51.4385C61.3119 51.2191 61.4219 51.0326 61.5979 50.8777C61.7738 50.7466 61.9709 50.6912 62.191 50.713L67.8911 51.6355L69.242 49.8563C70.1869 48.5166 70.9882 47.0557 71.6472 45.4748C72.1744 44.1786 72.581 42.8607 72.8663 41.521C71.9003 41.1915 71.296 41.005 71.0541 40.9602C67.2104 39.8399 63.8496 39.9717 60.9719 41.3562C58.3577 42.5641 55.5795 45.0241 52.6359 48.7361C51.8233 49.7463 50.7907 51.3937 49.5387 53.6783C47.9572 56.622 46.9575 58.4124 46.5404 59.049C45.0465 61.4654 43.432 63.2552 41.6969 64.4196C44.7499 68.0439 48.7038 70.1302 53.5584 70.6798C56.4579 70.9876 59.2038 70.7345 61.7956 69.922C64.1461 69.1536 66.4196 67.9233 68.6159 66.2318C72.7892 62.9369 75.6887 58.8065 77.3144 53.8424L77.7427 52.2938C79.2801 46.6491 78.8083 41.2126 76.3259 35.9843C76.2159 35.7866 76.2053 35.5777 76.293 35.3583C76.3582 35.1401 76.5124 34.9866 76.7542 34.8983Z" fill="#589A74"/>
</svg>
