<svg width="60" height="54" viewBox="0 0 60 54" fill="none" xmlns="http://www.w3.org/2000/svg">
<path fill-rule="evenodd" clip-rule="evenodd" d="M40.6961 8.45191C40.6302 8.7155 40.4984 8.89145 40.3007 8.97909C38.4556 10.0117 36.764 11.7916 35.2266 14.3174L32.2283 19.6551C31.0421 21.8956 29.966 23.5977 28.9993 24.7621C25.9239 28.716 22.9473 31.3519 20.0702 32.6698C16.8195 34.1637 13.0746 34.3172 8.83477 33.1311L6.19888 32.3074C5.75934 32.1538 5.57286 31.8349 5.63875 31.3519C6.29772 27.8593 7.60447 24.7074 9.55964 21.8956L9.09836 15.9649C9.07661 15.7237 9.15305 15.5253 9.329 15.3718C9.48254 15.1958 9.66969 15.097 9.88912 15.0752C10.1086 15.0535 10.3063 15.1194 10.4822 15.2736C10.6357 15.4047 10.724 15.6031 10.7458 15.866L11.0753 19.8528L11.5036 19.3922V19.3579C13.1075 17.6011 14.952 15.9971 17.039 14.5474L18.5546 9.14383C18.6205 8.9244 18.7635 8.75965 18.9829 8.6496C19.1806 8.54021 19.3895 8.50661 19.609 8.55142C19.8284 8.61731 19.9931 8.74911 20.1032 8.9468C20.2132 9.14449 20.2462 9.36459 20.202 9.60577L19.1806 13.2631C19.7296 12.9336 20.4327 12.5494 21.2893 12.1099H21.3223C23.1233 11.188 25.0237 10.386 27.0224 9.70528C27.2418 9.61697 27.4507 9.62884 27.6484 9.73822C27.8461 9.82587 27.9891 9.98007 28.0768 10.1995C28.1644 10.4189 28.1539 10.6272 28.0438 10.8255C27.9562 11.045 27.802 11.1985 27.5825 11.2862C26.2422 11.7474 25.0567 12.2199 24.0241 12.7029L26.3634 13.4278C26.5829 13.4944 26.7476 13.6262 26.8577 13.8239C26.9677 14.0215 26.9895 14.2416 26.9236 14.4828C26.8577 14.7023 26.7147 14.867 26.4952 14.9771C26.2975 15.0871 26.0893 15.0976 25.8692 15.01L21.7506 13.758C20.6304 14.351 19.4554 15.01 18.2251 15.7349C16.5777 16.8999 15.1062 18.1184 13.81 19.3928L18.3569 20.1177C18.5764 20.1612 18.7635 20.2712 18.917 20.4472C19.0488 20.6673 19.093 20.8867 19.0488 21.1062C19.0271 21.3263 18.9058 21.5015 18.6864 21.6333C18.5105 21.7651 18.3022 21.8093 18.0604 21.7651L12.4591 20.8426L11.1082 22.6218L11.0753 22.6883C9.31779 25.1476 8.0987 27.9048 7.41798 30.9584L9.29605 31.4856C13.0739 32.5841 16.4347 32.4741 19.3783 31.1561C21.9707 29.9482 24.7377 27.4659 27.6814 23.7098C28.5822 22.5895 29.6036 20.9638 30.7456 18.8334L33.7769 13.4298C35.2708 11.014 36.8852 9.22357 38.6203 8.05982C35.5673 4.41373 31.6023 2.32677 26.7259 1.79959C21.2122 1.20651 16.1935 2.69974 11.6683 6.2806C7.07795 9.83905 4.03547 14.4631 2.54158 20.152C1.04769 25.7532 1.52018 31.2009 3.95837 36.4945C4.06842 36.6928 4.07897 36.9123 3.99132 37.1534C3.92543 37.3735 3.78309 37.5271 3.56299 37.6147C3.47535 37.6813 3.3653 37.7136 3.2335 37.7136C2.86053 37.7136 2.59628 37.5488 2.44274 37.2193C-0.170745 31.6398 -0.68738 25.8079 0.894153 19.7236C2.54158 13.6828 5.78175 8.76229 10.614 4.96265C15.5998 1.07472 21.0363 -0.52856 26.9236 0.152158C32.5907 0.744574 37.1264 3.28227 40.5313 7.76329C40.6855 7.93594 40.7402 8.16724 40.6961 8.45191ZM55.7542 15.8983C55.9519 15.7672 56.1608 15.7553 56.3803 15.8653C56.5997 15.9319 56.7539 16.0742 56.8415 16.2937C59.4992 21.8949 60.0152 27.7156 58.3901 33.7564C58.2366 34.3489 58.0718 34.8984 57.8959 35.4039C56.2043 40.6757 53.1296 45.0572 48.6703 48.5504C46.3197 50.3737 43.8703 51.6917 41.3228 52.5042C39.2358 53.1632 37.1165 53.4927 34.9637 53.4927C34.1946 53.4927 33.3386 53.4373 32.3937 53.3279C26.7265 52.7124 22.1796 50.1761 18.753 45.7161C18.5994 45.5408 18.5447 45.3102 18.5882 45.0242C18.6541 44.7389 18.8077 44.5524 19.0495 44.4641C20.8946 43.4091 22.575 41.6417 24.0906 39.1594C24.4425 38.6098 25.4415 36.8642 27.089 33.9205C28.3193 31.6141 29.3954 29.8678 30.3179 28.6817C33.3492 24.7938 36.3258 22.1796 39.247 20.8399C42.4984 19.3025 46.2433 19.1266 50.4825 20.3127L53.1513 21.1694C53.3272 21.236 53.4696 21.3559 53.5796 21.5325C53.6897 21.7085 53.7226 21.8949 53.6785 22.0926C53.3714 23.6742 52.8877 25.344 52.2287 27.1008C51.5256 28.77 50.7131 30.2645 49.7905 31.5825L50.1859 37.5132C50.2077 37.7327 50.1424 37.9304 49.9882 38.1057C49.8564 38.2592 49.67 38.3475 49.4281 38.3692C49.1863 38.391 48.9774 38.3251 48.8021 38.1716C48.6485 38.0398 48.5602 37.8533 48.5385 37.6108L48.242 33.591L47.8466 34.0853C46.2426 35.8645 44.3758 37.4783 42.2453 38.9287L40.7297 44.3323C40.6638 44.5524 40.532 44.7171 40.3343 44.8265C40.1366 44.9583 39.9284 44.9913 39.7083 44.9254C39.4664 44.8588 39.2911 44.727 39.1811 44.5293C39.071 44.3316 39.0388 44.1234 39.0822 43.9033L40.1366 40.246L37.9949 41.3992C36.1498 42.3218 34.2718 43.1237 32.3607 43.8044C32.1413 43.8927 31.9324 43.8809 31.7347 43.7715C31.5153 43.6832 31.3617 43.5185 31.2734 43.2773C31.1858 43.0572 31.197 42.8489 31.3064 42.6512C31.394 42.4536 31.5588 42.3106 31.8006 42.2229C33.162 41.7175 34.3377 41.2457 35.3261 40.8068L32.9209 40.016C32.7014 39.9495 32.5479 39.8183 32.4596 39.62C32.3495 39.4223 32.3278 39.2141 32.3937 38.9946C32.4596 38.7745 32.5914 38.6216 32.7891 38.5333C32.9868 38.4015 33.2062 38.3686 33.448 38.4345L37.5666 39.7195C38.5768 39.2141 39.7412 38.5445 41.0592 37.7096C42.6848 36.6329 44.1675 35.4362 45.5072 34.1182L40.9603 33.3604C40.7409 33.3387 40.5649 33.2293 40.4331 33.0309C40.3013 32.8556 40.246 32.6579 40.2684 32.4385C40.3119 32.2191 40.4219 32.0326 40.5979 31.8777C40.7738 31.7466 40.9709 31.6912 41.191 31.713L46.8911 32.6355L48.242 30.8563C49.1869 29.5166 49.9882 28.0557 50.6472 26.4748C51.1744 25.1786 51.581 23.8607 51.8663 22.521C50.9003 22.1915 50.296 22.005 50.0541 21.9602C46.2104 20.8399 42.8496 20.9717 39.9719 22.3562C37.3577 23.5641 34.5795 26.0241 31.6359 29.7361C30.8233 30.7463 29.7907 32.3937 28.5387 34.6783C26.9572 37.622 25.9575 39.4124 25.5404 40.049C24.0465 42.4654 22.432 44.2552 20.6969 45.4196C23.7499 49.0439 27.7038 51.1302 32.5584 51.6798C35.4579 51.9876 38.2038 51.7345 40.7956 50.922C43.1461 50.1536 45.4196 48.9233 47.6159 47.2318C51.7892 43.9369 54.6887 39.8065 56.3144 34.8424L56.7427 33.2938C58.2801 27.6491 57.8083 22.2126 55.3259 16.9843C55.2159 16.7866 55.2053 16.5777 55.293 16.3583C55.3582 16.1401 55.5124 15.9866 55.7542 15.8983Z" fill="#589A74"/>
</svg>
