<svg width="108" height="31" viewBox="0 0 108 31" fill="none" xmlns="http://www.w3.org/2000/svg">
<path d="M106.712 27.4249C106.712 29.0769 105.346 30.4151 103.656 30.4151H3.65591C1.96705 30.4151 0.596191 29.0769 0.596191 27.4249V3.57901C0.596191 1.92776 1.96705 0.5849 3.65591 0.5849H103.655C105.346 0.5849 106.711 1.92776 106.711 3.57901L106.712 27.4249Z" fill="black"/>
<path d="M103.333 0.62097C105.173 0.62097 106.671 2.08088 106.671 3.875V27.125C106.671 28.9191 105.173 30.379 103.333 30.379H3.97436C2.13423 30.379 0.636891 28.9191 0.636891 27.125V3.875C0.636891 2.08088 2.13423 0.62097 3.97436 0.62097H103.333ZM103.333 1.63833e-06H3.97436C1.78946 1.63833e-06 0 1.74472 0 3.875V27.125C0 29.2553 1.78946 31 3.97436 31H103.333C105.518 31 107.308 29.2553 107.308 27.125V3.875C107.308 1.74472 105.518 1.63833e-06 103.333 1.63833e-06Z" fill="#A6A6A6"/>
<path d="M23.9479 15.3326C23.9249 12.8348 26.0456 11.6196 26.1426 11.563C24.9415 9.85568 23.0799 9.62241 22.4258 9.60381C20.8622 9.44338 19.3456 10.516 18.5492 10.516C17.7368 10.516 16.5103 9.61931 15.1885 9.64566C13.4874 9.67123 11.8961 10.6315 11.0233 12.1226C9.22215 15.1629 10.5655 19.6308 12.2911 22.0883C13.1544 23.2919 14.1631 24.6357 15.4834 24.5884C16.775 24.5365 17.2575 23.7855 18.8163 23.7855C20.3607 23.7855 20.8138 24.5884 22.1603 24.5582C23.5465 24.5365 24.4193 23.3492 25.2523 22.1348C26.2499 20.7553 26.6505 19.3967 26.6664 19.327C26.6338 19.3161 23.9742 18.3264 23.9479 15.3326Z" fill="white"/>
<path d="M21.4044 7.98716C22.0991 7.14008 22.5744 5.98766 22.4425 4.81818C21.4369 4.86158 20.1795 5.49631 19.4553 6.32478C18.8147 7.05483 18.2424 8.25143 18.3902 9.37673C19.5197 9.45888 20.6794 8.82106 21.4044 7.98716Z" fill="white"/>
<path d="M42.6408 24.4156H40.8357L39.8469 21.3861H36.4098L35.4679 24.4156H33.7104L37.1157 14.1019H39.2189L42.6408 24.4156ZM39.5488 20.1151L38.6546 17.422C38.56 17.1469 38.3827 16.499 38.1212 15.4791H38.0894C37.9853 15.9177 37.8175 16.5656 37.587 17.422L36.7087 20.1151H39.5488Z" fill="white"/>
<path d="M51.3979 20.6057C51.3979 21.8705 51.0474 22.8702 50.3463 23.6042C49.7183 24.2575 48.9386 24.5838 48.0078 24.5838C47.0031 24.5838 46.2813 24.2319 45.8417 23.5282H45.81V27.4458H44.1153V19.4269C44.1153 18.6318 44.0938 17.8157 44.0525 16.9787H45.5429L45.6375 18.1575H45.6693C46.2344 17.2693 47.0921 16.826 48.2431 16.826C49.1428 16.826 49.894 17.1724 50.4949 17.8661C51.0974 18.5605 51.3979 19.4734 51.3979 20.6057ZM49.6714 20.6661C49.6714 19.9423 49.5045 19.3455 49.1691 18.8759C48.8026 18.3861 48.3106 18.1412 47.6938 18.1412C47.2757 18.1412 46.8957 18.2776 46.5563 18.5465C46.2161 18.8178 45.9936 19.1719 45.8894 19.6106C45.837 19.8152 45.8107 19.9826 45.8107 20.1143V21.3543C45.8107 21.8953 45.9808 22.3518 46.3211 22.7245C46.6613 23.0973 47.1032 23.2833 47.6469 23.2833C48.2852 23.2833 48.782 23.0431 49.1373 22.5641C49.4934 22.0844 49.6714 21.452 49.6714 20.6661Z" fill="white"/>
<path d="M60.171 20.6057C60.171 21.8705 59.8205 22.8702 59.1186 23.6042C58.4915 24.2575 57.7117 24.5838 56.7809 24.5838C55.7762 24.5838 55.0544 24.2319 54.6157 23.5282H54.5839V27.4458H52.8892V19.4269C52.8892 18.6318 52.8677 17.8157 52.8264 16.9787H54.3168L54.4114 18.1575H54.4432C55.0075 17.2693 55.8652 16.826 57.017 16.826C57.916 16.826 58.6671 17.1724 59.2696 17.8661C59.8698 18.5605 60.171 19.4734 60.171 20.6057ZM58.4446 20.6661C58.4446 19.9423 58.2769 19.3455 57.9414 18.8759C57.575 18.3861 57.0845 18.1412 56.4669 18.1412C56.048 18.1412 55.6689 18.2776 55.3287 18.5465C54.9885 18.8178 54.7667 19.1719 54.6626 19.6106C54.6109 19.8152 54.5839 19.9826 54.5839 20.1143V21.3543C54.5839 21.8953 54.754 22.3518 55.0926 22.7245C55.4328 23.0965 55.8748 23.2833 56.42 23.2833C57.0583 23.2833 57.5551 23.0431 57.9104 22.5641C58.2665 22.0844 58.4446 21.452 58.4446 20.6661Z" fill="white"/>
<path d="M69.9797 21.5233C69.9797 22.4006 69.6673 23.1144 69.0402 23.6654C68.351 24.2676 67.3916 24.5683 66.1588 24.5683C65.0205 24.5683 64.108 24.3544 63.4172 23.9258L63.8099 22.5486C64.5539 22.9873 65.3702 23.2074 66.2597 23.2074C66.898 23.2074 67.3948 23.0663 67.7517 22.7858C68.107 22.5052 68.2842 22.1286 68.2842 21.6589C68.2842 21.2404 68.138 20.8878 67.8447 20.6018C67.553 20.3159 67.0657 20.05 66.3853 19.8044C64.5332 19.1309 63.608 18.1443 63.608 16.847C63.608 15.9991 63.9323 15.3039 64.5817 14.763C65.2288 14.2213 66.092 13.9508 67.1714 13.9508C68.134 13.9508 68.9336 14.1143 69.5719 14.4406L69.1483 15.7875C68.5521 15.4713 67.8781 15.3132 67.1237 15.3132C66.5276 15.3132 66.0618 15.4566 65.7279 15.7418C65.4458 15.9968 65.3043 16.3076 65.3043 16.6757C65.3043 17.0833 65.4656 17.4205 65.7899 17.6855C66.0721 17.9304 66.5848 18.1955 67.3288 18.4814C68.2389 18.8387 68.9074 19.2564 69.3374 19.7354C69.7659 20.2128 69.9797 20.8103 69.9797 21.5233Z" fill="white"/>
<path d="M75.5827 18.2187H73.7148V21.8294C73.7148 22.7478 74.0439 23.2066 74.7036 23.2066C75.0064 23.2066 75.2576 23.181 75.4563 23.1299L75.5032 24.3846C75.1694 24.5063 74.7298 24.5675 74.1853 24.5675C73.5161 24.5675 72.993 24.3683 72.6155 23.9707C72.2395 23.5724 72.0503 22.9043 72.0503 21.9658V18.2171H70.9375V16.9771H72.0503V15.6155L73.7148 15.1257V16.9771H75.5827V18.2187Z" fill="white"/>
<path d="M84.0108 20.6359C84.0108 21.779 83.6754 22.7176 83.0061 23.4515C82.3042 24.2071 81.3726 24.5838 80.2113 24.5838C79.0921 24.5838 78.2011 24.2218 77.5366 23.498C76.872 22.7741 76.5398 21.8604 76.5398 20.7591C76.5398 19.6067 76.8816 18.6628 77.5676 17.9288C78.2519 17.1941 79.1756 16.8268 80.3369 16.8268C81.4561 16.8268 82.3567 17.1887 83.0363 17.9133C83.6865 18.6163 84.0108 19.5238 84.0108 20.6359ZM82.2525 20.6894C82.2525 20.0035 82.1023 19.4153 81.7979 18.9247C81.4426 18.3311 80.9346 18.035 80.2765 18.035C79.5953 18.035 79.0778 18.3318 78.7225 18.9247C78.4181 19.4161 78.2678 20.0136 78.2678 20.7204C78.2678 21.4063 78.4181 21.9945 78.7225 22.4843C79.0889 23.0779 79.6008 23.374 80.2614 23.374C80.9084 23.374 81.4163 23.0717 81.7828 22.4688C82.0952 21.9689 82.2525 21.3745 82.2525 20.6894Z" fill="white"/>
<path d="M89.5191 18.4318C89.3514 18.4016 89.1726 18.3861 88.985 18.3861C88.3888 18.3861 87.9278 18.6054 87.6035 19.0448C87.3213 19.4323 87.1798 19.9221 87.1798 20.5135V24.4156H85.4859L85.5018 19.3207C85.5018 18.4636 85.4804 17.6832 85.4382 16.9795H86.9143L86.9763 18.4024H87.0232C87.2021 17.9133 87.4842 17.5196 87.8705 17.2244C88.2481 16.9585 88.6559 16.826 89.0955 16.826C89.252 16.826 89.3935 16.8369 89.5191 16.8562V18.4318Z" fill="white"/>
<path d="M97.0982 20.3453C97.0982 20.6413 97.0784 20.8909 97.0362 21.0947H91.9522C91.9721 21.8294 92.2177 22.3913 92.6899 22.7788C93.1183 23.1252 93.6723 23.2988 94.3528 23.2988C95.1055 23.2988 95.7923 23.1818 96.4099 22.947L96.6754 24.094C95.9536 24.4009 95.1015 24.5535 94.1183 24.5535C92.9355 24.5535 92.0071 24.2141 91.3315 23.536C90.6574 22.8578 90.3196 21.9472 90.3196 20.8049C90.3196 19.6834 90.6336 18.7496 91.2623 18.0048C91.9205 17.2096 92.8099 16.8121 93.9291 16.8121C95.0284 16.8121 95.8606 17.2096 96.4258 18.0048C96.8733 18.6364 97.0982 19.4176 97.0982 20.3453ZM95.4823 19.9167C95.4934 19.4269 95.3829 19.0038 95.1532 18.6465C94.8599 18.1869 94.4092 17.9575 93.8027 17.9575C93.2487 17.9575 92.798 18.1815 92.4538 18.631C92.1716 18.9883 92.0039 19.4168 91.9522 19.9159H95.4823V19.9167Z" fill="white"/>
<path d="M38.9884 7.75699C38.9884 8.66916 38.7079 9.35581 38.1475 9.81694C37.6284 10.2424 36.8908 10.4555 35.9353 10.4555C35.4616 10.4555 35.0562 10.4354 34.7168 10.3951V5.41106C35.1595 5.34131 35.6365 5.30566 36.1515 5.30566C37.0617 5.30566 37.7476 5.49864 38.2103 5.88459C38.7285 6.32091 38.9884 6.94479 38.9884 7.75699ZM38.1101 7.77946C38.1101 7.18814 37.9495 6.73476 37.6284 6.41856C37.3073 6.10314 36.8383 5.94504 36.2207 5.94504C35.9584 5.94504 35.735 5.96209 35.5498 5.99774V9.78671C35.6524 9.80221 35.84 9.80919 36.1126 9.80919C36.7501 9.80919 37.2421 9.63636 37.5887 9.29071C37.9352 8.94506 38.1101 8.44131 38.1101 7.77946Z" fill="white"/>
<path d="M43.6456 8.55368C43.6456 9.11555 43.4811 9.5759 43.152 9.93705C42.807 10.3083 42.35 10.4935 41.7793 10.4935C41.2292 10.4935 40.7912 10.316 40.4646 9.95953C40.1387 9.6038 39.9757 9.15508 39.9757 8.61413C39.9757 8.04838 40.1434 7.58416 40.4805 7.22378C40.8175 6.86341 41.2706 6.68283 41.8413 6.68283C42.3913 6.68283 42.8333 6.86031 43.1679 7.21603C43.4859 7.56168 43.6456 8.00808 43.6456 8.55368ZM42.7816 8.58003C42.7816 8.24291 42.7069 7.95383 42.5582 7.71281C42.3834 7.42141 42.1346 7.27571 41.8111 7.27571C41.4764 7.27571 41.2221 7.42141 41.0472 7.71281C40.8978 7.95383 40.8238 8.24756 40.8238 8.59476C40.8238 8.93188 40.8986 9.22095 41.0472 9.46198C41.2276 9.75338 41.4788 9.89908 41.8031 9.89908C42.1211 9.89908 42.3707 9.75106 42.5503 9.45423C42.7045 9.20856 42.7816 8.91716 42.7816 8.58003Z" fill="white"/>
<path d="M49.8902 6.75723L48.7177 10.4106H47.9546L47.469 8.82416C47.3458 8.42813 47.2456 8.03443 47.1677 7.64383H47.1526C47.0803 8.04528 46.9801 8.43821 46.8514 8.82416L46.3355 10.4106H45.5637L44.4612 6.75723H45.3173L45.7409 8.49401C45.8435 8.90476 45.9277 9.29613 45.9953 9.66658H46.0104C46.0724 9.36123 46.1749 8.97218 46.3196 8.50176L46.8514 6.75801H47.5302L48.0397 8.46456C48.1629 8.88073 48.263 9.28141 48.3402 9.66736H48.3632C48.4196 9.29148 48.5047 8.89081 48.6176 8.46456L49.0722 6.75801H49.8902V6.75723Z" fill="white"/>
<path d="M54.2087 10.4106H53.3757V8.31809C53.3757 7.67329 53.1245 7.35089 52.6206 7.35089C52.3734 7.35089 52.1739 7.43924 52.0189 7.61671C51.8654 7.79419 51.7875 8.00344 51.7875 8.24291V10.4098H50.9545V7.80116C50.9545 7.48031 50.9442 7.13234 50.9243 6.75569H51.6564L51.6953 7.32686H51.7184C51.8154 7.14939 51.96 7.00291 52.15 6.88589C52.3757 6.74949 52.6285 6.68051 52.9051 6.68051C53.2549 6.68051 53.5458 6.79056 53.7771 7.01144C54.0648 7.28191 54.2087 7.68569 54.2087 8.22199V10.4106Z" fill="white"/>
<path d="M56.5058 10.4106H55.6736V5.0809H56.5058V10.4106Z" fill="white"/>
<path d="M61.4102 8.55368C61.4102 9.11555 61.2456 9.5759 60.9165 9.93705C60.5716 10.3083 60.1137 10.4935 59.5438 10.4935C58.993 10.4935 58.555 10.316 58.2291 9.95953C57.9032 9.6038 57.7402 9.15508 57.7402 8.61413C57.7402 8.04838 57.908 7.58416 58.245 7.22378C58.582 6.86341 59.0351 6.68283 59.605 6.68283C60.1559 6.68283 60.597 6.86031 60.9324 7.21603C61.2504 7.56168 61.4102 8.00808 61.4102 8.55368ZM60.5453 8.58003C60.5453 8.24291 60.4706 7.95383 60.322 7.71281C60.1479 7.42141 59.8983 7.27571 59.5756 7.27571C59.2402 7.27571 58.9858 7.42141 58.8117 7.71281C58.6623 7.95383 58.5884 8.24756 58.5884 8.59476C58.5884 8.93188 58.6631 9.22095 58.8117 9.46198C58.9922 9.75338 59.2433 9.89908 59.5676 9.89908C59.8856 9.89908 60.1344 9.75106 60.314 9.45423C60.469 9.20856 60.5453 8.91716 60.5453 8.58003Z" fill="white"/>
<path d="M65.4416 10.4106H64.6937L64.6317 9.98976H64.6086C64.3527 10.3253 63.9878 10.4935 63.5141 10.4935C63.1603 10.4935 62.8742 10.3827 62.6588 10.1626C62.4633 9.96263 62.3655 9.71385 62.3655 9.41858C62.3655 8.97218 62.5562 8.63195 62.9402 8.39635C63.3233 8.16076 63.8622 8.04528 64.5561 8.0507V7.98251C64.5561 7.50123 64.297 7.26098 63.778 7.26098C63.4083 7.26098 63.0825 7.35166 62.8011 7.53146L62.6318 6.99826C62.9799 6.78823 63.4099 6.68283 63.9171 6.68283C64.8963 6.68283 65.3876 7.18658 65.3876 8.19408V9.53948C65.3876 9.9045 65.4059 10.1951 65.4416 10.4106ZM64.5768 9.15508V8.59166C63.6579 8.57616 63.1985 8.82183 63.1985 9.32791C63.1985 9.51856 63.251 9.66115 63.3583 9.75648C63.4656 9.8518 63.6023 9.89908 63.7652 9.89908C63.9481 9.89908 64.119 9.84251 64.2748 9.73013C64.4313 9.61698 64.5275 9.4736 64.5633 9.29768C64.572 9.25815 64.5768 9.2101 64.5768 9.15508Z" fill="white"/>
<path d="M70.1753 10.4106H69.4361L69.3971 9.8239H69.3741C69.138 10.2703 68.7358 10.4935 68.1706 10.4935C67.7192 10.4935 67.3432 10.3207 67.0451 9.97503C66.747 9.62938 66.5984 9.18065 66.5984 8.62963C66.5984 8.0383 66.7597 7.55935 67.0841 7.19355C67.398 6.85255 67.7827 6.68205 68.2406 6.68205C68.7437 6.68205 69.0959 6.84713 69.2962 7.17805H69.3121V5.0809H70.1459V9.42633C70.1459 9.78205 70.1554 10.1099 70.1753 10.4106ZM69.3121 8.86988V8.26073C69.3121 8.15533 69.3041 8.07008 69.289 8.00498C69.2421 7.80968 69.1412 7.64538 68.9878 7.51285C68.8328 7.38033 68.646 7.31368 68.4306 7.31368C68.1198 7.31368 67.8765 7.4338 67.6977 7.67483C67.5204 7.91585 67.4306 8.22353 67.4306 8.5994C67.4306 8.96055 67.5157 9.2535 67.6866 9.47903C67.867 9.71928 68.1102 9.8394 68.4147 9.8394C68.6881 9.8394 68.9067 9.73943 69.0728 9.5387C69.2334 9.35348 69.3121 9.13028 69.3121 8.86988Z" fill="white"/>
<path d="M77.2998 8.55368C77.2998 9.11555 77.1353 9.5759 76.8062 9.93705C76.4612 10.3083 76.005 10.4935 75.4334 10.4935C74.8842 10.4935 74.4462 10.316 74.1187 9.95953C73.7928 9.6038 73.6299 9.15508 73.6299 8.61413C73.6299 8.04838 73.7976 7.58416 74.1346 7.22378C74.4717 6.86341 74.9247 6.68283 75.4962 6.68283C76.0455 6.68283 76.4882 6.86031 76.8221 7.21603C77.14 7.56168 77.2998 8.00808 77.2998 8.55368ZM76.4366 8.58003C76.4366 8.24291 76.3619 7.95383 76.2132 7.71281C76.0375 7.42141 75.7896 7.27571 75.4652 7.27571C75.1314 7.27571 74.877 7.42141 74.7014 7.71281C74.5519 7.95383 74.478 8.24756 74.478 8.59476C74.478 8.93188 74.5527 9.22095 74.7014 9.46198C74.8818 9.75338 75.133 9.89908 75.4573 9.89908C75.7752 9.89908 76.0256 9.75106 76.2053 9.45423C76.3587 9.20856 76.4366 8.91716 76.4366 8.58003Z" fill="white"/>
<path d="M81.7787 10.4106H80.9465V8.31809C80.9465 7.67329 80.6953 7.35089 80.1906 7.35089C79.9434 7.35089 79.7439 7.43924 79.5897 7.61671C79.4354 7.79419 79.3583 8.00344 79.3583 8.24291V10.4098H78.5245V7.80116C78.5245 7.48031 78.515 7.13234 78.4951 6.75569H79.2264L79.2653 7.32686H79.2884C79.3862 7.14939 79.5308 7.00291 79.72 6.88589C79.9466 6.74949 80.1985 6.68051 80.4759 6.68051C80.8249 6.68051 81.1158 6.79056 81.3471 7.01144C81.6356 7.28191 81.7787 7.68569 81.7787 8.22199V10.4106Z" fill="white"/>
<path d="M87.3851 7.36561H86.4678V9.14036C86.4678 9.59141 86.6308 9.81693 86.9535 9.81693C87.1029 9.81693 87.2269 9.80453 87.3247 9.77896L87.3462 10.3951C87.1816 10.4555 86.9654 10.4858 86.6991 10.4858C86.37 10.4858 86.1141 10.3881 85.9289 10.1928C85.7429 9.99751 85.6507 9.66891 85.6507 9.20778V7.36561H85.103V6.75723H85.6507V6.08763L86.467 5.84738V6.75646H87.3843V7.36561H87.3851Z" fill="white"/>
<path d="M91.795 10.4106H90.9612V8.33358C90.9612 7.6787 90.71 7.35088 90.2068 7.35088C89.8205 7.35088 89.5566 7.54075 89.412 7.9205C89.3873 8.00033 89.373 8.09798 89.373 8.21268V10.4098H88.5408V5.0809H89.373V7.28268H89.3889C89.6512 6.882 90.0272 6.68205 90.5144 6.68205C90.8594 6.68205 91.1448 6.7921 91.3713 7.01298C91.6535 7.2881 91.795 7.6973 91.795 8.23825V10.4106Z" fill="white"/>
<path d="M96.344 8.41107C96.344 8.55677 96.3329 8.67922 96.313 8.77919H93.8147C93.8259 9.14034 93.9451 9.41547 94.1764 9.60612C94.3878 9.77662 94.6605 9.86187 94.9943 9.86187C95.3639 9.86187 95.7009 9.80452 96.0046 9.68904L96.135 10.2532C95.7796 10.4036 95.3615 10.4788 94.8775 10.4788C94.2972 10.4788 93.8402 10.3121 93.5095 9.97889C93.1772 9.64564 93.0127 9.19847 93.0127 8.63737C93.0127 8.08634 93.1661 7.62754 93.4753 7.26174C93.798 6.87114 94.2344 6.67584 94.7853 6.67584C95.3242 6.67584 95.7335 6.87114 96.0102 7.26174C96.2335 7.57174 96.344 7.95537 96.344 8.41107ZM95.5491 8.20104C95.5555 7.96002 95.5006 7.75232 95.3878 7.57717C95.2431 7.35164 95.0229 7.23849 94.7248 7.23849C94.453 7.23849 94.2312 7.34854 94.0619 7.56942C93.9236 7.74534 93.8417 7.95537 93.8147 8.20104H95.5491Z" fill="white"/>
</svg>
