<svg width="100" height="100" viewBox="0 0 100 100" fill="none" xmlns="http://www.w3.org/2000/svg">
<g clip-path="url(#clip0_1_10)">
<path d="M49.9732 65.9091C54.385 65.9091 58.1441 64.365 61.25 61.2768C64.3559 58.1886 65.9091 54.4386 65.9091 50.0268C65.9091 45.615 64.365 41.856 61.2768 38.75C58.1886 35.644 54.4386 34.0909 50.0268 34.0909C45.615 34.0909 41.856 35.635 38.75 38.7233C35.644 41.8115 34.0909 45.5614 34.0909 49.9732C34.0909 54.385 35.635 58.1441 38.7233 61.25C41.8115 64.3559 45.5614 65.9091 49.9732 65.9091ZM50 72.7273C43.7121 72.7273 38.3523 70.5114 33.9205 66.0795C29.4886 61.6477 27.2727 56.2877 27.2727 50C27.2727 43.7121 29.4886 38.3523 33.9205 33.9205C38.3523 29.4886 43.7121 27.2727 50 27.2727C56.2877 27.2727 61.6477 29.4886 66.0795 33.9205C70.5114 38.3523 72.7273 43.7121 72.7273 50C72.7273 56.2877 70.5114 61.6477 66.0795 66.0795C61.6477 70.5114 56.2877 72.7273 50 72.7273ZM3.40909 53.4091C2.44318 53.4091 1.63352 53.0805 0.980114 52.4232C0.326705 51.7659 0 50.9518 0 49.98C0 49.0086 0.326705 48.2009 0.980114 47.5568C1.63352 46.9127 2.44318 46.5909 3.40909 46.5909H14.7727C15.7386 46.5909 16.5483 46.9195 17.2017 47.5768C17.8551 48.2341 18.1818 49.0482 18.1818 50.02C18.1818 50.9914 17.8551 51.7991 17.2017 52.4432C16.5483 53.0873 15.7386 53.4091 14.7727 53.4091H3.40909ZM85.2273 53.4091C84.2614 53.4091 83.4518 53.0805 82.7982 52.4232C82.145 51.7659 81.8182 50.9518 81.8182 49.98C81.8182 49.0086 82.145 48.2009 82.7982 47.5568C83.4518 46.9127 84.2614 46.5909 85.2273 46.5909H96.5909C97.5568 46.5909 98.3664 46.9195 99.02 47.5768C99.6732 48.2341 100 49.0482 100 50.02C100 50.9914 99.6732 51.7991 99.02 52.4432C98.3664 53.0873 97.5568 53.4091 96.5909 53.4091H85.2273ZM49.98 18.1818C49.0086 18.1818 48.2009 17.8551 47.5568 17.2017C46.9127 16.5483 46.5909 15.7386 46.5909 14.7727V3.40909C46.5909 2.44318 46.9195 1.63352 47.5768 0.980114C48.2341 0.326705 49.0482 0 50.02 0C50.9914 0 51.7991 0.326705 52.4432 0.980114C53.0873 1.63352 53.4091 2.44318 53.4091 3.40909V14.7727C53.4091 15.7386 53.0805 16.5483 52.4232 17.2017C51.7659 17.8551 50.9518 18.1818 49.98 18.1818ZM49.98 100C49.0086 100 48.2009 99.6732 47.5568 99.02C46.9127 98.3664 46.5909 97.5568 46.5909 96.5909V85.2273C46.5909 84.2614 46.9195 83.4518 47.5768 82.7982C48.2341 82.145 49.0482 81.8182 50.02 81.8182C50.9914 81.8182 51.7991 82.145 52.4432 82.7982C53.0873 83.4518 53.4091 84.2614 53.4091 85.2273V96.5909C53.4091 97.5568 53.0805 98.3664 52.4232 99.02C51.7659 99.6732 50.9518 100 49.98 100ZM22.7273 27.5L16.25 21.1364C15.5682 20.4545 15.2413 19.6362 15.2695 18.6815C15.2975 17.7266 15.6204 16.9122 16.2383 16.2383C16.9122 15.5643 17.7266 15.2273 18.6815 15.2273C19.6363 15.2273 20.4545 15.5682 21.1364 16.25L27.5 22.7273C28.106 23.4091 28.4091 24.2045 28.4091 25.1136C28.4091 26.0227 28.106 26.7992 27.5 27.4432C26.894 28.0871 26.1174 28.4091 25.1705 28.4091C24.2235 28.4091 23.4091 28.106 22.7273 27.5ZM78.8636 83.75L72.5 77.2727C71.8941 76.5909 71.5909 75.7814 71.5909 74.8436C71.5909 73.9064 71.9127 73.125 72.5568 72.5C73.2009 71.8182 73.9773 71.4773 74.8864 71.4773C75.7955 71.4773 76.5909 71.8182 77.2727 72.5L83.75 78.8636C84.4318 79.5455 84.7586 80.3636 84.7305 81.3186C84.7027 82.2732 84.3795 83.0877 83.7618 83.7618C83.0877 84.4359 82.2732 84.7727 81.3186 84.7727C80.3636 84.7727 79.5455 84.4318 78.8636 83.75ZM72.5 27.5C71.8182 26.8182 71.4773 26.0227 71.4773 25.1136C71.4773 24.2045 71.8182 23.4091 72.5 22.7273L78.8636 16.25C79.5455 15.5682 80.3636 15.2413 81.3186 15.2694C82.2732 15.2975 83.0877 15.6204 83.7618 16.2383C84.4359 16.9122 84.7727 17.7266 84.7727 18.6815C84.7727 19.6362 84.4318 20.4545 83.75 21.1364L77.2727 27.5C76.6668 28.106 75.8955 28.4091 74.9586 28.4091C74.0223 28.4091 73.2023 28.106 72.5 27.5ZM16.2383 83.7618C15.5643 83.0877 15.2273 82.2732 15.2273 81.3186C15.2273 80.3636 15.5682 79.5455 16.25 78.8636L22.7273 72.5C23.394 71.8182 24.1856 71.4773 25.1023 71.4773C26.019 71.4773 26.8034 71.8182 27.4556 72.5C28.167 73.1818 28.5227 73.9773 28.5227 74.8864C28.5227 75.7955 28.1818 76.5909 27.5 77.2727L21.1364 83.75C20.4545 84.4318 19.6363 84.7586 18.6815 84.7305C17.7266 84.7027 16.9122 84.3795 16.2383 83.7618Z" fill="#F6F170"/>
</g>
<defs>
<clipPath id="clip0_1_10">
<rect width="100" height="100" fill="white"/>
</clipPath>
</defs>
</svg>
